<svg width="111" height="45" viewBox="0 0 111 45" fill="none" xmlns="http://www.w3.org/2000/svg">
<rect width="111" height="45" fill="black"/>
<path d="M9.19789 36V32.96H12.6679V32.22H9.19789V30.07H12.7379V29.33H8.36789V36H9.19789ZM20.5957 36.12C22.4057 36.12 23.3257 35.06 23.3257 33.4V29.33H22.4857V33.39C22.4857 34.61 21.8257 35.38 20.5957 35.38C19.3657 35.38 18.7157 34.61 18.7157 33.39V29.33H17.8757V33.41C17.8757 35.05 18.7957 36.12 20.5957 36.12ZM33.7274 36L31.9274 33.28C32.8374 33.2 33.6674 32.54 33.6674 31.34C33.6674 30.11 32.7874 29.33 31.5674 29.33H28.8874V36H29.7174V33.35H31.0574L32.7474 36H33.7274ZM31.4674 32.62H29.7174V30.07H31.4674C32.2574 30.07 32.8074 30.58 32.8074 31.34C32.8074 32.09 32.2574 32.62 31.4674 32.62ZM44.5012 36V29.33H43.6712V34.54L39.8312 29.33H38.9812V36H39.8112V30.68L43.7012 36H44.5012ZM50.8913 36V29.33H50.0613V36H50.8913ZM58.7338 36C60.8138 36 62.1538 34.57 62.1538 32.67C62.1538 30.78 60.8138 29.33 58.7338 29.33H56.4538V36H58.7338ZM58.7338 35.26H57.2838V30.07H58.7338C60.3838 30.07 61.2938 31.23 61.2938 32.67C61.2938 34.1 60.3538 35.26 58.7338 35.26ZM71.8258 36V35.26H68.2858V32.96H71.7558V32.22H68.2858V30.07H71.8258V29.33H67.4558V36H71.8258ZM82.6691 36V29.33H81.8391V34.54L77.9991 29.33H77.1491V36H77.9791V30.68L81.8691 36H82.6691ZM91.3892 36.12C92.5692 36.12 93.3692 35.56 93.9292 34.79L93.2292 34.41C92.8492 34.97 92.1492 35.38 91.3892 35.38C89.9292 35.38 88.8192 34.25 88.8192 32.67C88.8192 31.07 89.9292 29.96 91.3892 29.96C92.1492 29.96 92.8492 30.36 93.2292 30.93L93.9192 30.54C93.3892 29.78 92.5692 29.22 91.3892 29.22C89.4692 29.22 87.9592 30.62 87.9592 32.67C87.9592 34.72 89.4692 36.12 91.3892 36.12ZM103.357 36V35.26H99.817V32.96H103.287V32.22H99.817V30.07H103.357V29.33H98.987V36H103.357Z" fill="#AC8F17"/>
<path d="M45.4286 4C43.2857 4 41.1429 6 41.1429 8C45.4286 8 47.5714 11.1521 47.5714 14H60.4286C60.4286 10.9637 62.5714 8 66.8571 8C66.8571 6 64.7143 4 62.5714 4H45.4286ZM41.1429 10C39 10 39 12 39 12C39 13.0363 40.0325 14 41.1429 14V20C41.1429 21.2905 42.05 22 43.2857 22H44.3571C44.3571 22 44.3571 24 46.5 24C48.6429 24 48.6429 22 48.6429 22H59.3571C59.3571 22 59.3571 24 61.5 24C63.6429 24 63.6429 22 63.6429 22H64.7143C65.8061 22 66.8571 21.0315 66.8571 20V14C67.917 14 69 13.2248 69 12C69 12 69 10 66.8571 10C64.7143 10 62.5714 12 62.5714 16H45.4286C45.4286 12 43.2857 10 41.1429 10Z" fill="#AC8F17"/>
</svg>
